<svg width="386" height="59" viewBox="0 0 386 59" fill="none" xmlns="http://www.w3.org/2000/svg">
<path d="M4 17.8047L40.9738 0L65.5079 17.8047L61.7068 45.7337L4 17.8047Z" fill="#9CFFDE"/>
<path d="M27.644 28.9763L41.1205 28.2781L62.199 45.7337L35.5917 32.8165L27.644 28.9763Z" fill="#201D2B"/>
<path d="M24.5341 0.698242L32.8273 4.18937L4.49219 17.8048L24.5341 0.698242Z" fill="#00B4CB"/>
<path d="M19.0053 10.8225L40.4294 28.2781L27.6441 28.9764L11.7488 21.2959L19.0053 10.8225Z" fill="#2FD0A7"/>
<path d="M4.49209 17.8047L54.2513 41.8934L34.2094 50.2721L2.07324 27.9289L4.49209 17.8047Z" fill="#FFB3C1"/>
<path d="M0 30.7219L2.0733 27.929L34.2094 50.2722L47.3403 38.4722L62.199 45.7337L14.8586 59L0 30.7219Z" fill="#FA3177"/>
<path d="M11.7488 21.2959L50.1048 39.7989L14.1676 34.5622L11.7488 21.2959Z" fill="#007D8D"/>
<path d="M33.1729 53.8331L62.199 45.7336L59.7802 54.1123L39.7383 56.9052L33.1729 53.8331Z" fill="#00B4CB"/>
<path d="M369.507 18.9455C371.285 18.9455 373.084 19.2862 374.903 19.9678C376.763 20.6494 378.479 21.6317 380.05 22.9147C381.663 24.1576 382.965 25.8415 383.957 27.9664C384.991 30.0914 385.508 32.4368 385.508 35.0028C385.508 36.0051 385.446 36.9473 385.322 37.8294H361.507C361.921 39.834 362.934 41.4378 364.546 42.6406C366.158 43.8033 367.874 44.3846 369.693 44.3846C372.422 44.3846 374.531 43.6028 376.019 42.0392L382.531 45.3468C379.182 49.1156 374.882 51 369.631 51C368.267 51 366.841 50.7995 365.352 50.3986C363.905 49.9977 362.458 49.3762 361.011 48.5343C359.564 47.6522 358.262 46.6098 357.104 45.407C355.988 44.1641 355.078 42.6405 354.375 40.8364C353.672 39.0322 353.321 37.0876 353.321 35.0028C353.321 31.5949 354.189 28.628 355.926 26.1021C357.703 23.5762 359.791 21.752 362.189 20.6294C364.587 19.5068 367.027 18.9455 369.507 18.9455ZM369.507 25.621C367.647 25.621 365.972 26.1823 364.484 27.3049C362.996 28.4275 362.024 30.0112 361.569 32.0559H377.508C377.053 30.0112 376.04 28.4275 374.469 27.3049C372.939 26.1823 371.285 25.621 369.507 25.621Z" fill="#F5F3FF"/>
<path d="M347.601 19.0056C348.759 19.0056 349.71 19.0658 350.454 19.186V26.3427C349.792 26.2625 348.821 26.2224 347.539 26.2224C344.686 26.2224 342.268 27.1646 340.283 29.049C338.34 30.8933 337.224 33.379 336.934 36.5063V50.579H328.996V19.3063H336.934V29.2294C337.306 26.1823 338.361 23.7166 340.097 21.8322C341.875 19.9478 344.376 19.0056 347.601 19.0056Z" fill="#F5F3FF"/>
<path d="M301.371 19.9678C303.231 19.2862 305.03 18.9455 306.766 18.9455C308.503 18.9455 310.301 19.2862 312.162 19.9678C314.022 20.6494 315.779 21.6317 317.433 22.9147C319.087 24.1576 320.431 25.8415 321.464 27.9664C322.539 30.0914 323.077 32.4368 323.077 35.0028C323.077 37.0876 322.725 39.0322 322.022 40.8364C321.32 42.6405 320.389 44.1641 319.232 45.407C318.115 46.6098 316.834 47.6522 315.387 48.5343C313.94 49.3762 312.472 49.9977 310.983 50.3986C309.536 50.7995 308.131 51 306.766 51C305.402 51 303.975 50.7995 302.487 50.3986C301.04 49.9977 299.593 49.3762 298.146 48.5343C296.699 47.6522 295.396 46.6098 294.239 45.407C293.122 44.1641 292.213 42.6405 291.51 40.8364C290.807 39.0322 290.456 37.0876 290.456 35.0028C290.456 32.4368 290.972 30.0914 292.006 27.9664C293.081 25.8415 294.445 24.1576 296.099 22.9147C297.753 21.6317 299.51 20.6494 301.371 19.9678ZM312.596 28.0867C310.901 26.4028 308.957 25.5608 306.766 25.5608C304.575 25.5608 302.632 26.4028 300.937 28.0867C299.241 29.7706 298.394 32.076 298.394 35.0028C298.394 37.8895 299.241 40.1748 300.937 41.8587C302.632 43.5426 304.575 44.3846 306.766 44.3846C308.957 44.3846 310.901 43.5426 312.596 41.8587C314.291 40.1748 315.139 37.8895 315.139 35.0028C315.139 32.076 314.291 29.7706 312.596 28.0867Z" fill="#F5F3FF"/>
<path d="M253.816 18.2238C253.816 16.0988 254.168 14.3147 254.871 12.8713C255.615 11.428 256.587 10.3855 257.786 9.74405C258.985 9.06247 260.122 8.6014 261.197 8.36084C262.271 8.12028 263.408 8 264.607 8C267.212 8 269.672 8.58135 271.988 9.74405L269.445 15.0965C268.039 14.5753 266.571 14.3147 265.042 14.3147C264.256 14.3147 263.615 14.435 263.119 14.6755C262.623 14.9161 262.292 15.297 262.127 15.8182C261.961 16.2993 261.858 16.7002 261.817 17.021C261.775 17.3016 261.755 17.7427 261.755 18.3441V19.3063H268.328V25.9217H261.755V50.579H253.816V25.9217H249.909V19.3063H253.816V18.2238ZM276.205 19.3063H284.143V50.579H276.205V19.3063Z" fill="#F5F3FF"/>
<path d="M228.369 18.9455C230.726 18.9455 232.752 19.4466 234.447 20.4489C236.142 21.4513 237.093 22.4737 237.3 23.5161V19.3063H245.238V50.579H237.3V45.9482C237.093 47.0308 236.121 48.1534 234.385 49.3161C232.69 50.4387 230.684 51 228.369 51C226.633 51 224.896 50.6792 223.16 50.0377C221.423 49.3562 219.79 48.3939 218.26 47.151C216.772 45.8681 215.552 44.1641 214.601 42.0392C213.692 39.9142 213.237 37.5487 213.237 34.9426C213.237 32.3767 213.692 30.0513 214.601 27.9664C215.552 25.8816 216.772 24.1977 218.26 22.9147C219.749 21.6317 221.361 20.6494 223.098 19.9678C224.834 19.2862 226.591 18.9455 228.369 18.9455ZM229.609 25.5608C227.377 25.5608 225.413 26.4228 223.718 28.1468C222.023 29.8308 221.175 32.096 221.175 34.9426C221.175 37.8294 222.023 40.1347 223.718 41.8587C225.413 43.5426 227.377 44.3846 229.609 44.3846C231.842 44.3846 233.744 43.6028 235.315 42.0392C236.886 40.4354 237.672 38.0699 237.672 34.9426C237.672 31.7352 236.886 29.3697 235.315 27.8461C233.785 26.3226 231.883 25.5608 229.609 25.5608Z" fill="#F5F3FF"/>
<path d="M208.994 25.561H202.172V41.3176C202.172 43.3223 203.04 44.3246 204.776 44.3246C206.265 44.3246 207.671 44.064 208.994 43.5428V49.8575C207.505 50.5791 205.459 50.94 202.854 50.94C200.166 50.94 198.058 50.2784 196.528 48.9554C194.998 47.5922 194.233 45.0864 194.233 41.4379V25.561H190.884V19.3064H194.233V13.8938H202.172V19.3064H208.994V25.561Z" fill="#F5F3FF"/>
<path d="M179.606 28.3273C178.365 26.4028 176.753 25.4406 174.768 25.4406C173.859 25.4406 173.094 25.6611 172.474 26.1021C171.853 26.5431 171.543 27.1245 171.543 27.8461C171.543 29.1291 172.494 30.1114 174.396 30.793L178.427 32.1762C179.998 32.7375 181.177 33.1986 181.962 33.5594C182.748 33.8802 183.657 34.4014 184.691 35.1231C185.766 35.8447 186.531 36.7268 186.986 37.7692C187.482 38.8116 187.73 40.0545 187.73 41.4979C187.73 44.4648 186.407 46.7902 183.761 48.4741C181.115 50.158 178.158 51 174.892 51C171.791 51 168.98 50.2783 166.458 48.835C163.977 47.3515 162.385 45.3068 161.683 42.7007L168.318 40.7161C168.897 41.9189 169.786 42.841 170.985 43.4825C172.225 44.124 173.528 44.4447 174.892 44.4447C176.091 44.4447 177.146 44.1641 178.055 43.6028C178.965 43.0415 179.419 42.2998 179.419 41.3776C179.419 40.0545 178.427 39.0723 176.443 38.4308L172.474 36.9874C169.29 35.8247 166.954 34.5818 165.466 33.2587C164.019 31.9357 163.295 30.1515 163.295 27.9063C163.295 25.22 164.391 23.055 166.582 21.4112C168.815 19.7674 171.481 18.9455 174.582 18.9455C180.37 18.9455 184.422 21.4914 186.738 26.5832L179.606 28.3273Z" fill="#F5F3FF"/>
<path d="M139.522 18.9455C141.879 18.9455 143.905 19.4466 145.6 20.4489C147.295 21.4513 148.246 22.4737 148.452 23.5161V19.3063H156.391V50.579H148.452V45.9482C148.246 47.0308 147.274 48.1534 145.538 49.3161C143.843 50.4387 141.837 51 139.522 51C137.785 51 136.049 50.6792 134.313 50.0377C132.576 49.3562 130.943 48.3939 129.413 47.151C127.925 45.8681 126.705 44.1641 125.754 42.0392C124.845 39.9142 124.39 37.5487 124.39 34.9426C124.39 32.3767 124.845 30.0513 125.754 27.9664C126.705 25.8816 127.925 24.1977 129.413 22.9147C130.902 21.6317 132.514 20.6494 134.251 19.9678C135.987 19.2862 137.744 18.9455 139.522 18.9455ZM140.762 25.5608C138.53 25.5608 136.566 26.4228 134.871 28.1468C133.176 29.8308 132.328 32.096 132.328 34.9426C132.328 37.8294 133.176 40.1347 134.871 41.8587C136.566 43.5426 138.53 44.3846 140.762 44.3846C142.995 44.3846 144.897 43.6028 146.468 42.0392C148.039 40.4354 148.825 38.0699 148.825 34.9426C148.825 31.7352 148.039 29.3697 146.468 27.8461C144.938 26.3226 143.036 25.5608 140.762 25.5608Z" fill="#F5F3FF"/>
<path d="M107.4 8.06016C113.023 8.06016 117.798 9.80421 121.726 13.2923L116.641 19.1259C113.994 16.8406 110.956 15.6979 107.524 15.6979C103.968 15.6979 100.888 17.041 98.2834 19.7273C95.72 22.4135 94.4383 25.6811 94.4383 29.5301C94.4383 33.4191 95.72 36.7068 98.2834 39.393C100.888 42.0392 103.968 43.3622 107.524 43.3622C110.873 43.3622 113.974 42.1594 116.827 39.7539L121.788 45.5874C117.736 49.1958 112.94 51 107.4 51C103.762 51 100.268 50.118 96.919 48.3538C93.6114 46.5497 90.8826 43.9837 88.7327 40.6559C86.5828 37.3282 85.5078 33.6396 85.5078 29.5902C85.5078 25.5007 86.5828 21.7921 88.7327 18.4643C90.8826 15.0965 93.6114 12.5306 96.919 10.7664C100.268 8.96225 103.762 8.06016 107.4 8.06016Z" fill="#F5F3FF"/>
</svg>
