<svg width="146" height="30" viewBox="0 0 146 30" fill="none" xmlns="http://www.w3.org/2000/svg">
<path d="M2.03418 9.05325L20.8344 0L33.3094 9.05325L31.3766 23.2544L2.03418 9.05325Z" fill="#9CFFDE"/>
<path d="M14.0557 14.7337L20.9081 14.3787L31.626 23.2544L18.0968 16.6864L14.0557 14.7337Z" fill="#201D2B"/>
<path d="M12.475 0.35498L16.6918 2.13013L2.28418 9.0532L12.475 0.35498Z" fill="#00B4CB"/>
<path d="M9.6634 5.50293L20.557 14.3787L14.056 14.7337L5.97363 10.8284L9.6634 5.50293Z" fill="#2FD0A7"/>
<path d="M2.28363 9.05322L27.5849 21.3017L17.3941 25.5621L1.05371 14.2012L2.28363 9.05322Z" fill="#FFB3C1"/>
<path d="M0 15.6213L1.05422 14.2012L17.3946 25.5621L24.0713 19.5621L31.6266 23.2544L7.55524 30L0 15.6213Z" fill="#FA3177"/>
<path d="M5.97363 10.8284L25.4767 20.2367L7.20356 17.5739L5.97363 10.8284Z" fill="#007D8D"/>
<path d="M16.8672 27.3727L31.6263 23.2544L30.3963 27.5147L20.2055 28.9349L16.8672 27.3727Z" fill="#00B4CB"/>
<path d="M139.762 11.3182C140.378 11.3182 141.002 11.4371 141.632 11.6748C142.277 11.9126 142.872 12.2552 143.417 12.7028C143.976 13.1364 144.427 13.7238 144.771 14.465C145.129 15.2063 145.309 16.0245 145.309 16.9196C145.309 17.2692 145.287 17.5979 145.244 17.9056H136.988C137.132 18.6049 137.483 19.1643 138.042 19.5839C138.601 19.9895 139.196 20.1923 139.826 20.1923C140.772 20.1923 141.503 19.9196 142.019 19.3741L144.277 20.528C143.116 21.8427 141.625 22.5 139.805 22.5C139.332 22.5 138.837 22.4301 138.321 22.2902C137.82 22.1503 137.318 21.9336 136.816 21.6399C136.315 21.3322 135.863 20.9685 135.462 20.5489C135.075 20.1154 134.76 19.5839 134.516 18.9545C134.272 18.3252 134.15 17.6468 134.15 16.9196C134.15 15.7308 134.451 14.6958 135.053 13.8147C135.67 12.9336 136.394 12.2972 137.225 11.9056C138.056 11.514 138.902 11.3182 139.762 11.3182ZM139.762 13.6469C139.117 13.6469 138.536 13.8427 138.02 14.2343C137.504 14.6259 137.168 15.1783 137.01 15.8916H142.535C142.378 15.1783 142.026 14.6259 141.482 14.2343C140.951 13.8427 140.378 13.6469 139.762 13.6469Z" fill="#2A2834"/>
<path d="M132.168 11.3392C132.569 11.3392 132.899 11.3601 133.157 11.4021V13.8986C132.927 13.8706 132.59 13.8566 132.146 13.8566C131.157 13.8566 130.319 14.1853 129.631 14.8427C128.957 15.486 128.57 16.3532 128.47 17.4441V22.3531H125.718V11.4441H128.47V14.9056C128.599 13.8427 128.964 12.9825 129.566 12.3252C130.183 11.6678 131.05 11.3392 132.168 11.3392Z" fill="#2A2834"/>
<path d="M116.141 11.6748C116.786 11.4371 117.41 11.3182 118.012 11.3182C118.613 11.3182 119.237 11.4371 119.882 11.6748C120.527 11.9126 121.136 12.2552 121.709 12.7028C122.283 13.1364 122.749 13.7238 123.107 14.465C123.479 15.2063 123.666 16.0245 123.666 16.9196C123.666 17.6468 123.544 18.3252 123.3 18.9545C123.057 19.5839 122.734 20.1154 122.333 20.5489C121.946 20.9685 121.502 21.3322 121 21.6399C120.498 21.9336 119.989 22.1503 119.473 22.2902C118.972 22.4301 118.484 22.5 118.012 22.5C117.539 22.5 117.044 22.4301 116.528 22.2902C116.026 22.1503 115.525 21.9336 115.023 21.6399C114.521 21.3322 114.07 20.9685 113.669 20.5489C113.282 20.1154 112.966 19.5839 112.723 18.9545C112.479 18.3252 112.357 17.6468 112.357 16.9196C112.357 16.0245 112.536 15.2063 112.895 14.465C113.267 13.7238 113.74 13.1364 114.314 12.7028C114.887 12.2552 115.496 11.9126 116.141 11.6748ZM120.032 14.507C119.445 13.9196 118.771 13.6259 118.012 13.6259C117.252 13.6259 116.578 13.9196 115.991 14.507C115.403 15.0944 115.109 15.8986 115.109 16.9196C115.109 17.9266 115.403 18.7238 115.991 19.3112C116.578 19.8986 117.252 20.1923 118.012 20.1923C118.771 20.1923 119.445 19.8986 120.032 19.3112C120.62 18.7238 120.914 17.9266 120.914 16.9196C120.914 15.8986 120.62 15.0944 120.032 14.507Z" fill="#2A2834"/>
<path d="M99.6556 11.0664C99.6556 10.3252 99.7774 9.7028 100.021 9.1993C100.279 8.6958 100.616 8.33217 101.032 8.10839C101.447 7.87063 101.841 7.70979 102.214 7.62587C102.587 7.54196 102.981 7.5 103.396 7.5C104.299 7.5 105.152 7.7028 105.955 8.10839L105.073 9.97552C104.586 9.7937 104.077 9.7028 103.547 9.7028C103.275 9.7028 103.052 9.74475 102.88 9.82867C102.708 9.91259 102.594 10.0455 102.536 10.2273C102.479 10.3951 102.443 10.535 102.429 10.6469C102.415 10.7448 102.407 10.8986 102.407 11.1084V11.4441H104.686V13.7517H102.407V22.3531H99.6556V13.7517H98.3011V11.4441H99.6556V11.0664ZM107.417 11.4441H110.169V22.3531H107.417V11.4441Z" fill="#2A2834"/>
<path d="M90.8338 11.3182C91.6508 11.3182 92.3531 11.493 92.9408 11.8427C93.5284 12.1923 93.8581 12.549 93.9297 12.9126V11.4441H96.6816V22.3531H93.9297V20.7378C93.8581 21.1154 93.5212 21.507 92.9193 21.9126C92.3316 22.3042 91.6365 22.5 90.8338 22.5C90.2318 22.5 89.6299 22.3881 89.0279 22.1643C88.4259 21.9266 87.8597 21.5909 87.3294 21.1573C86.8134 20.7098 86.3906 20.1154 86.061 19.3741C85.7456 18.6329 85.588 17.8077 85.588 16.8986C85.588 16.0035 85.7456 15.1923 86.061 14.465C86.3906 13.7378 86.8134 13.1503 87.3294 12.7028C87.8454 12.2552 88.4044 11.9126 89.0064 11.6748C89.6084 11.4371 90.2175 11.3182 90.8338 11.3182ZM91.2638 13.6259C90.4898 13.6259 89.809 13.9266 89.2214 14.528C88.6337 15.1154 88.3399 15.9056 88.3399 16.8986C88.3399 17.9056 88.6337 18.7098 89.2214 19.3112C89.809 19.8986 90.4898 20.1923 91.2638 20.1923C92.0378 20.1923 92.6971 19.9196 93.2417 19.3741C93.7864 18.8147 94.0587 17.9895 94.0587 16.8986C94.0587 15.7797 93.7864 14.9545 93.2417 14.4231C92.7114 13.8916 92.0521 13.6259 91.2638 13.6259Z" fill="#2A2834"/>
<path d="M84.117 13.6259H81.7521V19.1224C81.7521 19.8217 82.053 20.1714 82.655 20.1714C83.171 20.1714 83.6583 20.0805 84.117 19.8986V22.1014C83.601 22.3532 82.8915 22.4791 81.9885 22.4791C81.0569 22.4791 80.3259 22.2483 79.7956 21.7868C79.2653 21.3112 79.0001 20.4371 79.0001 19.1644V13.6259H77.8392V11.4441H79.0001V9.55599H81.7521V11.4441H84.117V13.6259Z" fill="#2A2834"/>
<path d="M73.9291 14.5909C73.4992 13.9196 72.9402 13.5839 72.2522 13.5839C71.9369 13.5839 71.6717 13.6608 71.4567 13.8147C71.2417 13.9685 71.1342 14.1713 71.1342 14.4231C71.1342 14.8706 71.4639 15.2133 72.1232 15.451L73.5206 15.9336C74.0653 16.1294 74.4738 16.2902 74.7461 16.4161C75.0184 16.528 75.3338 16.7098 75.6921 16.9615C76.0647 17.2133 76.3299 17.521 76.4876 17.8846C76.6596 18.2482 76.7456 18.6818 76.7456 19.1853C76.7456 20.2203 76.2869 21.0315 75.3696 21.6189C74.4523 22.2063 73.4275 22.5 72.2952 22.5C71.2202 22.5 70.2456 22.2482 69.3713 21.7448C68.5113 21.2273 67.9595 20.514 67.7158 19.6049L70.0163 18.9126C70.2169 19.3322 70.5251 19.6538 70.9407 19.8776C71.3707 20.1014 71.8222 20.2133 72.2952 20.2133C72.7108 20.2133 73.0763 20.1154 73.3917 19.9196C73.707 19.7238 73.8646 19.465 73.8646 19.1434C73.8646 18.6818 73.5206 18.3392 72.8327 18.1154L71.4567 17.6119C70.3531 17.2063 69.5433 16.7727 69.0273 16.3112C68.5256 15.8496 68.2748 15.2273 68.2748 14.4441C68.2748 13.507 68.6546 12.7517 69.4143 12.1783C70.1883 11.6049 71.1127 11.3182 72.1877 11.3182C74.1943 11.3182 75.5989 12.2063 76.4016 13.9825L73.9291 14.5909Z" fill="#2A2834"/>
<path d="M60.0335 11.3182C60.8505 11.3182 61.5528 11.493 62.1404 11.8427C62.7281 12.1923 63.0577 12.549 63.1294 12.9126V11.4441H65.8813V22.3531H63.1294V20.7378C63.0577 21.1154 62.7209 21.507 62.1189 21.9126C61.5313 22.3042 60.8361 22.5 60.0335 22.5C59.4315 22.5 58.8295 22.3881 58.2276 22.1643C57.6256 21.9266 57.0594 21.5909 56.5291 21.1573C56.0131 20.7098 55.5903 20.1154 55.2607 19.3741C54.9453 18.6329 54.7877 17.8077 54.7877 16.8986C54.7877 16.0035 54.9453 15.1923 55.2607 14.465C55.5903 13.7378 56.0131 13.1503 56.5291 12.7028C57.0451 12.2552 57.6041 11.9126 58.2061 11.6748C58.808 11.4371 59.4172 11.3182 60.0335 11.3182ZM60.4635 13.6259C59.6895 13.6259 59.0087 13.9266 58.4211 14.528C57.8334 15.1154 57.5396 15.9056 57.5396 16.8986C57.5396 17.9056 57.8334 18.7098 58.4211 19.3112C59.0087 19.8986 59.6895 20.1923 60.4635 20.1923C61.2375 20.1923 61.8968 19.9196 62.4414 19.3741C62.9861 18.8147 63.2584 17.9895 63.2584 16.8986C63.2584 15.7797 62.9861 14.9545 62.4414 14.4231C61.9111 13.8916 61.2518 13.6259 60.4635 13.6259Z" fill="#2A2834"/>
<path d="M48.8979 7.52099C50.8471 7.52099 52.5026 8.12938 53.8642 9.34616L52.1013 11.3811C51.184 10.5839 50.1305 10.1853 48.9409 10.1853C47.7082 10.1853 46.6404 10.6539 45.7375 11.5909C44.8488 12.528 44.4045 13.6678 44.4045 15.0105C44.4045 16.3671 44.8488 17.514 45.7375 18.4511C46.6404 19.3741 47.7082 19.8357 48.9409 19.8357C50.1018 19.8357 51.1768 19.4161 52.1658 18.5769L53.8857 20.6119C52.4811 21.8706 50.8185 22.5 48.8979 22.5C47.6366 22.5 46.4254 22.1923 45.2645 21.5769C44.1178 20.9476 43.1719 20.0524 42.4266 18.8916C41.6812 17.7308 41.3086 16.4441 41.3086 15.0315C41.3086 13.6049 41.6812 12.3112 42.4266 11.1504C43.1719 9.97553 44.1178 9.08042 45.2645 8.46504C46.4254 7.83567 47.6366 7.52099 48.8979 7.52099Z" fill="#2A2834"/>
</svg>
